<?xml version="1.0" standalone="no"?>
<!DOCTYPE svg PUBLIC "-//W3C//DTD SVG 20010904//EN"
 "http://www.w3.org/TR/2001/REC-SVG-20010904/DTD/svg10.dtd">
<svg version="1.0" xmlns="http://www.w3.org/2000/svg"
 width="135.000000pt" height="65.000000pt" viewBox="0 0 135.000000 65.000000"
 preserveAspectRatio="xMidYMid meet">

<g transform="translate(0.000000,65.000000) scale(0.100000,-0.100000)"
fill="#31708e" stroke="none">
<path d="M369 636 c-80 -23 -172 -79 -240 -146 -172 -169 -169 -349 7 -376 52
-7 150 17 220 55 l51 28 -43 -68 c-51 -78 -67 -116 -54 -124 5 -3 18 15 29 41
46 103 191 284 228 284 13 0 23 5 23 10 0 22 -262 2 -285 -22 -7 -7 6 -9 40
-4 148 18 165 18 165 8 0 -20 -112 -110 -177 -142 -36 -18 -93 -37 -128 -43
-53 -9 -69 -8 -109 7 -89 34 -104 106 -46 215 93 173 373 323 468 248 21 -16
14 -51 -23 -112 -34 -57 -40 -88 -9 -49 22 27 64 116 64 135 0 9 -8 26 -17 38
-23 27 -100 35 -164 17z"/>
<path d="M908 312 c-17 -28 -95 -75 -110 -65 -5 2 -2 16 6 29 28 42 17 46 -26
10 -23 -20 -45 -36 -50 -36 -13 0 -9 17 7 30 8 7 15 19 15 27 0 12 -3 12 -22
-1 -31 -22 -54 -20 -78 7 l-21 22 -30 -33 c-33 -37 -36 -54 -13 -73 14 -12 20
-9 44 19 17 21 35 32 53 32 18 0 25 -4 21 -13 -3 -8 2 -20 10 -27 13 -10 20
-10 40 3 21 14 25 14 30 2 6 -17 39 -20 66 -5 16 8 18 8 14 -5 -10 -25 4 -17
42 25 34 38 38 40 55 24 10 -9 23 -13 29 -9 9 6 9 2 1 -14 -7 -12 -9 -26 -6
-31 9 -15 41 -12 55 5 12 14 15 14 30 0 21 -19 41 -19 66 0 25 19 34 19 34 0
0 -24 26 -17 64 16 20 17 40 28 46 24 13 -8 70 4 70 14 0 4 -16 5 -35 3 -31
-4 -35 -1 -35 18 0 19 -7 15 -44 -27 -47 -51 -75 -53 -37 -2 26 34 19 55 -7
23 -35 -43 -113 -82 -112 -56 0 4 9 18 20 32 11 14 20 28 20 33 0 13 -69 7
-105 -10 -36 -17 -36 -17 -59 10 -13 15 -25 27 -28 27 -2 0 -11 -12 -20 -28z
m166 -23 c-27 -30 -74 -62 -74 -50 0 15 60 71 77 71 14 0 13 -3 -3 -21z m-444
-7 c0 -5 -9 -17 -20 -27 -20 -18 -25 -11 -14 19 6 17 34 23 34 8z"/>
</g>
</svg>
